<svg width="80" height="80" viewBox="0 0 80 80" fill="none" xmlns="http://www.w3.org/2000/svg">
<rect x="2" y="2" width="76" height="76" rx="38" stroke="#1F1F1F" stroke-width="4"/>
<path d="M43.902 17.8636L43.1989 48.6733H36.3381L35.6562 17.8636H43.902ZM39.7685 61.9688C38.4759 61.9688 37.3679 61.5142 36.4446 60.6051C35.5355 59.696 35.081 58.5881 35.081 57.2812C35.081 56.0028 35.5355 54.9091 36.4446 54C37.3679 53.0909 38.4759 52.6364 39.7685 52.6364C41.0327 52.6364 42.1264 53.0909 43.0497 54C43.9872 54.9091 44.456 56.0028 44.456 57.2812C44.456 58.1477 44.2358 58.9361 43.7955 59.6463C43.3693 60.3565 42.8011 60.9247 42.0909 61.3509C41.3949 61.7628 40.6207 61.9688 39.7685 61.9688Z" fill="#1F1F1F"/>
</svg>
