<svg width="80" height="80" viewBox="0 0 80 80" fill="none" xmlns="http://www.w3.org/2000/svg">
<rect x="2" y="2" width="76" height="76" rx="38" stroke="#1F1F1F" stroke-width="4"/>
<path d="M43.9516 20.4531C42.79 16.5156 37.21 16.5156 36.0484 20.4531L35.7672 21.4094C35.5936 21.9989 35.2903 22.542 34.8795 22.999C34.4687 23.456 33.9609 23.8153 33.3931 24.0505C32.8254 24.2857 32.2123 24.3908 31.5986 24.3582C30.985 24.3255 30.3864 24.1559 29.8469 23.8619L28.975 23.3838C25.3666 21.4206 21.4206 25.3666 23.3866 28.9722L23.8619 29.8469C25.1163 32.1531 23.9266 35.0247 21.4094 35.7672L20.4531 36.0484C16.5156 37.21 16.5156 42.79 20.4531 43.9516L21.4094 44.2328C21.9989 44.4064 22.542 44.7097 22.999 45.1205C23.456 45.5313 23.8153 46.0391 24.0505 46.6069C24.2857 47.1746 24.3908 47.7877 24.3582 48.4014C24.3255 49.015 24.1559 49.6136 23.8619 50.1531L23.3838 51.025C21.4206 54.6334 25.3666 58.5794 28.9722 56.6134L29.8469 56.1381C30.3864 55.8441 30.985 55.6745 31.5986 55.6418C32.2123 55.6092 32.8254 55.7143 33.3931 55.9495C33.9609 56.1847 34.4687 56.544 34.8795 57.001C35.2903 57.458 35.5936 58.0011 35.7672 58.5906L36.0484 59.5469C37.21 63.4844 42.79 63.4844 43.9516 59.5469L44.2328 58.5906C44.4064 58.0011 44.7097 57.458 45.1205 57.001C45.5313 56.544 46.0391 56.1847 46.6069 55.9495C47.1746 55.7143 47.7877 55.6092 48.4014 55.6418C49.015 55.6745 49.6136 55.8441 50.1531 56.1381L51.025 56.6162C54.6334 58.5794 58.5794 54.6334 56.6134 51.0278L56.1381 50.1531C55.8441 49.6136 55.6745 49.015 55.6418 48.4014C55.6092 47.7877 55.7143 47.1746 55.9495 46.6069C56.1847 46.0391 56.544 45.5313 57.001 45.1205C57.458 44.7097 58.0011 44.4064 58.5906 44.2328L59.5469 43.9516C63.4844 42.79 63.4844 37.21 59.5469 36.0484L58.5906 35.7672C58.0011 35.5936 57.458 35.2903 57.001 34.8795C56.544 34.4687 56.1847 33.9609 55.9495 33.3931C55.7143 32.8254 55.6092 32.2123 55.6418 31.5986C55.6745 30.985 55.8441 30.3864 56.1381 29.8469L56.6162 28.975C58.5794 25.3666 54.6334 21.4206 51.0278 23.3866L50.1531 23.8619C49.6136 24.1559 49.015 24.3255 48.4014 24.3582C47.7877 24.3908 47.1746 24.2857 46.6069 24.0505C46.0391 23.8153 45.5313 23.456 45.1205 22.999C44.7097 22.542 44.4064 21.9989 44.2328 21.4094L43.9516 20.4531ZM40 48.2406C37.8145 48.2406 35.7184 47.3724 34.173 45.827C32.6276 44.2816 31.7594 42.1855 31.7594 40C31.7594 37.8145 32.6276 35.7184 34.173 34.173C35.7184 32.6276 37.8145 31.7594 40 31.7594C42.1848 31.7594 44.2801 32.6273 45.825 34.1722C47.3699 35.7171 48.2378 37.8124 48.2378 39.9972C48.2378 42.182 47.3699 44.2773 45.825 45.8222C44.2801 47.3671 42.1848 48.235 40 48.235V48.2406Z" fill="black"/>
</svg>
