<svg width="80" height="80" viewBox="0 0 80 80" fill="none" xmlns="http://www.w3.org/2000/svg">
<rect x="2" y="2" width="76" height="76" rx="38" stroke="#1F1F1F" stroke-width="4"/>
<path d="M34.8352 48.6733V48.1193C34.8494 45.5483 35.0909 43.5028 35.5597 41.983C36.0426 40.4631 36.7244 39.2415 37.6051 38.3182C38.4858 37.3807 39.5582 36.5213 40.8224 35.7401C41.6889 35.2003 42.4631 34.6108 43.1449 33.9716C43.8409 33.3182 44.3878 32.5937 44.7855 31.7983C45.1832 30.9886 45.3821 30.0866 45.3821 29.0923C45.3821 27.9702 45.1193 26.9972 44.5938 26.1733C44.0682 25.3494 43.358 24.7102 42.4631 24.2557C41.5824 23.8011 40.5952 23.5739 39.5014 23.5739C38.4929 23.5739 37.5341 23.794 36.625 24.2344C35.7301 24.6605 34.9844 25.3139 34.3878 26.1946C33.8054 27.0611 33.4787 28.1619 33.4077 29.4972H25.8224C25.8935 26.7983 26.5469 24.5398 27.7827 22.7216C29.0327 20.9034 30.6804 19.5398 32.7259 18.6307C34.7855 17.7216 37.0582 17.267 39.544 17.267C42.2571 17.267 44.6435 17.7429 46.7031 18.6946C48.777 19.6463 50.3892 21.0028 51.5398 22.7642C52.7045 24.5114 53.2869 26.5852 53.2869 28.9858C53.2869 30.6051 53.0241 32.054 52.4986 33.3324C51.9872 34.6108 51.2557 35.7472 50.304 36.7415C49.3523 37.7358 48.223 38.6236 46.9162 39.4048C45.7656 40.1151 44.821 40.8537 44.0824 41.6207C43.358 42.3878 42.8182 43.2898 42.4631 44.3267C42.1222 45.3494 41.9446 46.6136 41.9304 48.1193V48.6733H34.8352ZM38.5426 61.9688C37.2642 61.9688 36.1634 61.5142 35.2401 60.6051C34.3168 59.696 33.8551 58.5881 33.8551 57.2812C33.8551 56.0028 34.3168 54.9091 35.2401 54C36.1634 53.0909 37.2642 52.6364 38.5426 52.6364C39.8068 52.6364 40.9006 53.0909 41.8239 54C42.7614 54.9091 43.2301 56.0028 43.2301 57.2812C43.2301 58.1477 43.0099 58.9361 42.5696 59.6463C42.1435 60.3565 41.5753 60.9247 40.8651 61.3509C40.169 61.7628 39.3949 61.9688 38.5426 61.9688Z" fill="#1F1F1F"/>
</svg>
